<svg width="20" height="15" viewBox="0 0 20 15" fill="none" xmlns="http://www.w3.org/2000/svg">
<path d="M4.6043 2.85825C4.12691 2.85825 3.66907 3.04789 3.3315 3.38546C2.99394 3.72302 2.8043 4.18086 2.8043 4.65825V5.85825C2.8043 6.01738 2.86751 6.16999 2.98003 6.28252C3.09255 6.39504 3.24517 6.45825 3.4043 6.45825C3.56343 6.45825 3.71604 6.39504 3.82856 6.28252C3.94108 6.16999 4.0043 6.01738 4.0043 5.85825V4.65825C4.0043 4.49912 4.06751 4.34651 4.18003 4.23399C4.29255 4.12147 4.44517 4.05825 4.6043 4.05825H5.8043C5.96343 4.05825 6.11604 3.99504 6.22856 3.88252C6.34108 3.76999 6.4043 3.61738 6.4043 3.45825C6.4043 3.29912 6.34108 3.14651 6.22856 3.03399C6.11604 2.92147 5.96343 2.85825 5.8043 2.85825H4.6043ZM14.2043 2.85825C14.0452 2.85825 13.8926 2.92147 13.78 3.03399C13.6675 3.14651 13.6043 3.29912 13.6043 3.45825C13.6043 3.61738 13.6675 3.76999 13.78 3.88252C13.8926 3.99504 14.0452 4.05825 14.2043 4.05825H15.4043C15.5634 4.05825 15.716 4.12147 15.8286 4.23399C15.9411 4.34651 16.0043 4.49912 16.0043 4.65825V5.85825C16.0043 6.01738 16.0675 6.16999 16.18 6.28252C16.2926 6.39504 16.4452 6.45825 16.6043 6.45825C16.7634 6.45825 16.916 6.39504 17.0286 6.28252C17.1411 6.16999 17.2043 6.01738 17.2043 5.85825V4.65825C17.2043 4.18086 17.0147 3.72302 16.6771 3.38546C16.3395 3.04789 15.8817 2.85825 15.4043 2.85825H14.2043ZM4.0043 9.45825C4.0043 9.29912 3.94108 9.14651 3.82856 9.03399C3.71604 8.92146 3.56343 8.85825 3.4043 8.85825C3.24517 8.85825 3.09255 8.92146 2.98003 9.03399C2.86751 9.14651 2.8043 9.29912 2.8043 9.45825V10.6583C2.8043 11.1356 2.99394 11.5935 3.3315 11.931C3.66907 12.2686 4.12691 12.4583 4.6043 12.4583H5.8043C5.96343 12.4583 6.11604 12.395 6.22856 12.2825C6.34108 12.17 6.4043 12.0174 6.4043 11.8583C6.4043 11.6991 6.34108 11.5465 6.22856 11.434C6.11604 11.3215 5.96343 11.2583 5.8043 11.2583H4.6043C4.44517 11.2583 4.29255 11.195 4.18003 11.0825C4.06751 10.97 4.0043 10.8174 4.0043 10.6583V9.45825ZM17.2043 9.45825C17.2043 9.29912 17.1411 9.14651 17.0286 9.03399C16.916 8.92146 16.7634 8.85825 16.6043 8.85825C16.4452 8.85825 16.2926 8.92146 16.18 9.03399C16.0675 9.14651 16.0043 9.29912 16.0043 9.45825V10.6583C16.0043 10.8174 15.9411 10.97 15.8286 11.0825C15.716 11.195 15.5634 11.2583 15.4043 11.2583H14.2043C14.0452 11.2583 13.8926 11.3215 13.78 11.434C13.6675 11.5465 13.6043 11.6991 13.6043 11.8583C13.6043 12.0174 13.6675 12.17 13.78 12.2825C13.8926 12.395 14.0452 12.4583 14.2043 12.4583H15.4043C15.8817 12.4583 16.3395 12.2686 16.6771 11.931C17.0147 11.5935 17.2043 11.1356 17.2043 10.6583V9.45825ZM0.404297 2.85825C0.404297 2.22173 0.657153 1.61128 1.10724 1.1612C1.55733 0.711108 2.16778 0.458252 2.8043 0.458252H17.2043C17.8408 0.458252 18.4513 0.711108 18.9014 1.1612C19.3514 1.61128 19.6043 2.22173 19.6043 2.85825V12.4583C19.6043 13.0948 19.3514 13.7052 18.9014 14.1553C18.4513 14.6054 17.8408 14.8583 17.2043 14.8583H2.8043C2.16778 14.8583 1.55733 14.6054 1.10724 14.1553C0.657153 13.7052 0.404297 13.0948 0.404297 12.4583V2.85825ZM1.6043 2.85825V12.4583C1.6043 12.7765 1.73073 13.0817 1.95577 13.3068C2.18081 13.5318 2.48604 13.6583 2.8043 13.6583H17.2043C17.5226 13.6583 17.8278 13.5318 18.0528 13.3068C18.2779 13.0817 18.4043 12.7765 18.4043 12.4583V2.85825C18.4043 2.53999 18.2779 2.23477 18.0528 2.00972C17.8278 1.78468 17.5226 1.65825 17.2043 1.65825H2.8043C2.48604 1.65825 2.18081 1.78468 1.95577 2.00972C1.73073 2.23477 1.6043 2.53999 1.6043 2.85825ZM4.6043 2.85825C4.12691 2.85825 3.66907 3.04789 3.3315 3.38546C2.99394 3.72302 2.8043 4.18086 2.8043 4.65825V5.85825C2.8043 6.01738 2.86751 6.16999 2.98003 6.28252C3.09255 6.39504 3.24517 6.45825 3.4043 6.45825C3.56343 6.45825 3.71604 6.39504 3.82856 6.28252C3.94108 6.16999 4.0043 6.01738 4.0043 5.85825V4.65825C4.0043 4.49912 4.06751 4.34651 4.18003 4.23399C4.29255 4.12147 4.44517 4.05825 4.6043 4.05825H5.8043C5.96343 4.05825 6.11604 3.99504 6.22856 3.88252C6.34108 3.76999 6.4043 3.61738 6.4043 3.45825C6.4043 3.29912 6.34108 3.14651 6.22856 3.03399C6.11604 2.92147 5.96343 2.85825 5.8043 2.85825H4.6043ZM4.0043 9.45825C4.0043 9.29912 3.94108 9.14651 3.82856 9.03399C3.71604 8.92146 3.56343 8.85825 3.4043 8.85825C3.24517 8.85825 3.09255 8.92146 2.98003 9.03399C2.86751 9.14651 2.8043 9.29912 2.8043 9.45825V10.6583C2.8043 11.1356 2.99394 11.5935 3.3315 11.931C3.66907 12.2686 4.12691 12.4583 4.6043 12.4583H5.8043C5.96343 12.4583 6.11604 12.395 6.22856 12.2825C6.34108 12.17 6.4043 12.0174 6.4043 11.8583C6.4043 11.6991 6.34108 11.5465 6.22856 11.434C6.11604 11.3215 5.96343 11.2583 5.8043 11.2583H4.6043C4.44517 11.2583 4.29255 11.195 4.18003 11.0825C4.06751 10.97 4.0043 10.8174 4.0043 10.6583V9.45825Z" fill="#4F4F4F"/>
</svg>
