<svg width="19" height="18" viewBox="0 0 19 18" fill="none" xmlns="http://www.w3.org/2000/svg">
<path d="M3.5 7.6582V2.6582C3.5 2.12777 3.71071 1.61906 4.08579 1.24399C4.46086 0.868917 4.96957 0.658203 5.5 0.658203H8.5V2.9082M1.5 16.6582L2.5 15.1582M17.5 16.6582L16.5 15.1582M1.5 7.6582H17.5C17.7652 7.6582 18.0196 7.76356 18.2071 7.9511C18.3946 8.13863 18.5 8.39299 18.5 8.6582V11.6582C18.5 12.7191 18.0786 13.7365 17.3284 14.4866C16.5783 15.2368 15.5609 15.6582 14.5 15.6582H4.5C3.43913 15.6582 2.42172 15.2368 1.67157 14.4866C0.921427 13.7365 0.5 12.7191 0.5 11.6582V8.6582C0.5 8.39299 0.605357 8.13863 0.792893 7.9511C0.98043 7.76356 1.23478 7.6582 1.5 7.6582Z" stroke="#4F4F4F" stroke-linecap="round" stroke-linejoin="round"/>
</svg>
