<svg width="31" height="32" viewBox="0 0 31 32" fill="none" xmlns="http://www.w3.org/2000/svg">
<rect x="0.0842285" y="0.92749" width="30.2371" height="30.2371" fill="#060614"/>
<path d="M9.53354 16.0447V11.32C9.53354 10.8188 9.73265 10.3381 10.0871 9.98371C10.4415 9.62929 10.9222 9.43018 11.4234 9.43018H14.2582V11.5563M7.64367 24.5492L8.5886 23.1318M22.7627 24.5492L21.8177 23.1318M7.64367 16.0447H22.7627C23.0133 16.0447 23.2536 16.1443 23.4308 16.3215C23.608 16.4987 23.7076 16.7391 23.7076 16.9897V19.8245C23.7076 20.8269 23.3094 21.7883 22.6005 22.4972C21.8917 23.206 20.9303 23.6042 19.9278 23.6042H10.4785C9.47603 23.6042 8.51463 23.206 7.80579 22.4972C7.09695 21.7883 6.69873 20.8269 6.69873 19.8245V16.9897C6.69873 16.7391 6.79829 16.4987 6.9755 16.3215C7.15271 16.1443 7.39305 16.0447 7.64367 16.0447Z" stroke="white" stroke-width="1.31363" stroke-linecap="round" stroke-linejoin="round"/>
</svg>
