<svg width="31" height="31" viewBox="0 0 31 31" fill="none" xmlns="http://www.w3.org/2000/svg">
<rect x="0.0842285" y="0.561279" width="30.2371" height="30.2371" fill="#060614"/>
<mask id="path-2-inside-1_637_133" fill="white">
<path d="M22.9986 14.5596C22.5518 14.3635 22.0691 14.2624 21.5812 14.2628H8.82452C8.33662 14.2624 7.85396 14.3633 7.40711 14.5592C6.77557 14.8354 6.23817 15.2895 5.86059 15.8662C5.48301 16.4429 5.28161 17.1171 5.28101 17.8064V22.7673C5.28101 22.9552 5.35567 23.1355 5.48858 23.2684C5.62149 23.4013 5.80175 23.476 5.98971 23.476C6.17767 23.476 6.35793 23.4013 6.49084 23.2684C6.62374 23.1355 6.69841 22.9552 6.69841 22.7673V22.4129C6.69956 22.3193 6.73726 22.2298 6.80347 22.1636C6.86967 22.0974 6.95914 22.0597 7.05276 22.0586H23.3529C23.4465 22.0597 23.536 22.0974 23.6022 22.1636C23.6684 22.2298 23.7061 22.3193 23.7073 22.4129V22.7673C23.7073 22.9552 23.7819 23.1355 23.9148 23.2684C24.0478 23.4013 24.228 23.476 24.416 23.476C24.6039 23.476 24.7842 23.4013 24.9171 23.2684C25.05 23.1355 25.1247 22.9552 25.1247 22.7673V17.8064C25.124 17.1171 24.9225 16.4431 24.545 15.8665C24.1674 15.2899 23.63 14.8358 22.9986 14.5596ZM20.5181 7.88452H9.88757C9.22971 7.88452 8.5988 8.14585 8.13362 8.61103C7.66845 9.07621 7.40711 9.70712 7.40711 10.365V13.5541C7.40713 13.5816 7.41353 13.6087 7.42581 13.6332C7.43809 13.6578 7.4559 13.6792 7.47785 13.6957C7.4998 13.7121 7.52528 13.7233 7.55229 13.7283C7.57929 13.7332 7.60708 13.7318 7.63346 13.7242C8.02034 13.6111 8.42142 13.5538 8.82452 13.5541H9.01188C9.05561 13.5544 9.0979 13.5385 9.13061 13.5095C9.16332 13.4805 9.18414 13.4404 9.18906 13.3969C9.22771 13.0506 9.39257 12.7307 9.65215 12.4982C9.91173 12.2658 10.2478 12.1371 10.5963 12.1367H13.0767C13.4254 12.1368 13.7618 12.2653 14.0217 12.4978C14.2816 12.7303 14.4466 13.0504 14.4853 13.3969C14.4902 13.4404 14.511 13.4805 14.5437 13.5095C14.5764 13.5385 14.6187 13.5544 14.6625 13.5541H15.7459C15.7896 13.5544 15.8319 13.5385 15.8646 13.5095C15.8973 13.4805 15.9181 13.4404 15.9231 13.3969C15.9617 13.0508 16.1264 12.7311 16.3857 12.4987C16.645 12.2663 16.9807 12.1374 17.3289 12.1367H19.8094C20.1581 12.1368 20.4945 12.2653 20.7544 12.4978C21.0142 12.7303 21.1793 13.0504 21.218 13.3969C21.2229 13.4404 21.2437 13.4805 21.2764 13.5095C21.3091 13.5385 21.3514 13.5544 21.3951 13.5541H21.5812C21.9843 13.5539 22.3854 13.6114 22.7722 13.7247C22.7986 13.7323 22.8265 13.7337 22.8535 13.7287C22.8805 13.7237 22.906 13.7125 22.928 13.696C22.95 13.6794 22.9678 13.658 22.98 13.6334C22.9923 13.6088 22.9986 13.5816 22.9986 13.5541V10.365C22.9986 9.70712 22.7372 9.07621 22.2721 8.61103C21.8069 8.14585 21.176 7.88452 20.5181 7.88452Z"/>
</mask>
<path d="M22.9986 14.5596L22.4705 15.7625L22.4722 15.7632L22.9986 14.5596ZM21.5812 14.2628V15.5765L21.5823 15.5765L21.5812 14.2628ZM8.82452 14.2628L8.82325 15.5765H8.82452V14.2628ZM7.40711 14.5592L7.93345 15.7628L7.93454 15.7623L7.40711 14.5592ZM5.28101 17.8064L3.96737 17.8052V17.8064H5.28101ZM5.28101 22.7673L3.96737 22.7673L5.28101 22.7673ZM6.69841 22.7673H8.01204H6.69841ZM6.69841 22.4129L5.38488 22.3968L5.38478 22.4049V22.4129H6.69841ZM7.05276 22.0586V20.7449H7.0447L7.03664 20.745L7.05276 22.0586ZM23.3529 22.0586L23.369 20.745L23.361 20.7449H23.3529V22.0586ZM23.7073 22.4129H25.0209V22.4049L25.0208 22.3968L23.7073 22.4129ZM25.1247 17.8064H26.4383L26.4383 17.805L25.1247 17.8064ZM7.40711 10.365H6.09348H7.40711ZM7.40711 13.5541H6.09348L6.09348 13.5551L7.40711 13.5541ZM7.63346 13.7242L7.99799 14.9863L8.00222 14.985L7.63346 13.7242ZM8.82452 13.5541L8.8234 14.8678H8.82452V13.5541ZM9.01188 13.5541L9.02022 12.2405H9.01188V13.5541ZM9.18906 13.3969L10.4944 13.5447L10.4946 13.5426L9.18906 13.3969ZM10.5963 12.1367V10.8231L10.5949 10.8231L10.5963 12.1367ZM13.0767 12.1367L13.0768 10.8231H13.0767V12.1367ZM14.4853 13.3969L13.1798 13.5426L13.18 13.5447L14.4853 13.3969ZM14.6625 13.5541V12.2405L14.6541 12.2405L14.6625 13.5541ZM15.7459 13.5541L15.7542 12.2405H15.7459V13.5541ZM15.9231 13.3969L17.2284 13.5447L17.2286 13.5426L15.9231 13.3969ZM17.3289 12.1367V10.8231L17.3264 10.8231L17.3289 12.1367ZM19.8094 12.1367L19.8095 10.8231H19.8094V12.1367ZM21.218 13.3969L19.9124 13.5426L19.9127 13.5447L21.218 13.3969ZM21.2764 13.5095L20.4044 14.492L21.2764 13.5095ZM21.3951 13.5541V12.2405L21.3868 12.2405L21.3951 13.5541ZM21.5812 13.5541V14.8678H21.5818L21.5812 13.5541ZM22.7722 13.7247L22.403 14.9854L22.4077 14.9867L22.7722 13.7247ZM22.9986 13.5541H21.6849L21.6849 13.5565L22.9986 13.5541ZM23.5266 13.3568C22.913 13.0874 22.2501 12.9486 21.58 12.9492L21.5823 15.5765C21.8881 15.5762 22.1906 15.6395 22.4705 15.7625L23.5266 13.3568ZM21.5812 12.9492H8.82452V15.5765H21.5812V12.9492ZM8.82579 12.9492C8.15591 12.9486 7.4932 13.0871 6.87969 13.3561L7.93454 15.7623C8.21471 15.6395 8.51734 15.5762 8.82325 15.5765L8.82579 12.9492ZM6.88077 13.3556C6.01537 13.734 5.27897 14.3564 4.76157 15.1466L6.9596 16.5858C7.19737 16.2227 7.53577 15.9367 7.93345 15.7627L6.88077 13.3556ZM4.76157 15.1466C4.24418 15.9368 3.9682 16.8607 3.96737 17.8052L6.59464 17.8075C6.59502 17.3735 6.72184 16.9489 6.9596 16.5858L4.76157 15.1466ZM3.96737 17.8064V22.7673H6.59464V17.8064H3.96737ZM3.96737 22.7673C3.96737 23.3036 4.18044 23.818 4.5597 24.1973L6.41746 22.3395C6.53091 22.453 6.59464 22.6068 6.59464 22.7673L3.96737 22.7673ZM4.5597 24.1973C4.93896 24.5765 5.45335 24.7896 5.98971 24.7896V22.1623C6.15014 22.1623 6.30401 22.2261 6.41746 22.3395L4.5597 24.1973ZM5.98971 24.7896C6.52606 24.7896 7.04045 24.5765 7.41972 24.1973L5.56196 22.3395C5.67541 22.2261 5.82927 22.1623 5.98971 22.1623V24.7896ZM7.41972 24.1973C7.79898 23.818 8.01204 23.3036 8.01204 22.7673L5.38478 22.7673C5.38478 22.6068 5.44851 22.453 5.56196 22.3395L7.41972 24.1973ZM8.01204 22.7673V22.4129H5.38478V22.7673H8.01204ZM8.01195 22.429C8.00889 22.6782 7.90855 22.9163 7.73235 23.0925L5.87459 21.2348C5.56598 21.5434 5.39023 21.9604 5.38488 22.3968L8.01195 22.429ZM7.73235 23.0925C7.55615 23.2687 7.31805 23.3691 7.06888 23.3721L7.03664 20.745C6.60023 20.7504 6.1832 20.9261 5.87459 21.2348L7.73235 23.0925ZM7.05276 23.3722H23.3529V20.7449H7.05276V23.3722ZM23.3368 23.3721C23.0876 23.3691 22.8495 23.2687 22.6733 23.0925L24.5311 21.2348C24.2225 20.9261 23.8055 20.7504 23.369 20.745L23.3368 23.3721ZM22.6733 23.0925C22.4971 22.9163 22.3968 22.6782 22.3937 22.429L25.0208 22.3968C25.0155 21.9604 24.8397 21.5434 24.5311 21.2348L22.6733 23.0925ZM22.3936 22.4129V22.7673H25.0209V22.4129H22.3936ZM22.3936 22.7673C22.3936 23.3036 22.6067 23.818 22.986 24.1973L24.8437 22.3395C24.9572 22.453 25.0209 22.6068 25.0209 22.7673H22.3936ZM22.986 24.1973C23.3652 24.5765 23.8796 24.7896 24.416 24.7896V22.1623C24.5764 22.1623 24.7303 22.2261 24.8437 22.3395L22.986 24.1973ZM24.416 24.7896C24.9523 24.7896 25.4667 24.5765 25.846 24.1973L23.9882 22.3395C24.1017 22.2261 24.2555 22.1623 24.416 22.1623V24.7896ZM25.846 24.1973C26.2252 23.818 26.4383 23.3036 26.4383 22.7673H23.811C23.811 22.6068 23.8748 22.453 23.9882 22.3395L25.846 24.1973ZM26.4383 22.7673V17.8064H23.811V22.7673H26.4383ZM26.4383 17.805C26.4374 16.8606 26.1613 15.9369 25.6439 15.1468L23.446 16.5861C23.6838 16.9492 23.8106 17.3737 23.811 17.8077L26.4383 17.805ZM25.6439 15.1468C25.1266 14.3567 24.3902 13.7344 23.5249 13.356L22.4722 15.7632C22.8699 15.9371 23.2082 16.223 23.446 16.5861L25.6439 15.1468ZM20.5181 6.57089H9.88757V9.19816H20.5181V6.57089ZM9.88757 6.57089C8.88132 6.57089 7.91627 6.97062 7.20474 7.68215L9.0625 9.53991C9.28132 9.32109 9.57811 9.19816 9.88757 9.19816V6.57089ZM7.20474 7.68215C6.49321 8.39368 6.09348 9.35872 6.09348 10.365H8.72075C8.72075 10.0555 8.84368 9.75873 9.0625 9.53991L7.20474 7.68215ZM6.09348 10.365V13.5541H8.72075V10.365H6.09348ZM6.09348 13.5551C6.09365 13.7861 6.1475 14.0139 6.2508 14.2206L8.60082 13.0459C8.67957 13.2034 8.72062 13.3771 8.72075 13.5532L6.09348 13.5551ZM6.2508 14.2206C6.35409 14.4272 6.504 14.607 6.68868 14.7458L8.26702 12.6455C8.4078 12.7513 8.52208 12.8884 8.60082 13.0459L6.2508 14.2206ZM6.68868 14.7458C6.87337 14.8846 7.08778 14.9786 7.31501 15.0203L7.78956 12.4362C7.96278 12.4681 8.12623 12.5397 8.26702 12.6455L6.68868 14.7458ZM7.31501 15.0203C7.54224 15.062 7.77605 15.0504 7.99799 14.9863L7.26892 12.4622C7.43811 12.4133 7.61634 12.4044 7.78956 12.4362L7.31501 15.0203ZM8.00222 14.985C8.26896 14.907 8.54548 14.8675 8.8234 14.8678L8.82564 12.2405C8.29736 12.2401 7.77173 12.3151 7.26469 12.4634L8.00222 14.985ZM8.82452 14.8678H9.01188V12.2405H8.82452V14.8678ZM9.00355 14.8677C9.37153 14.8701 9.72736 14.7362 10.0026 14.492L8.25864 12.527C8.46844 12.3408 8.7397 12.2388 9.02022 12.2405L9.00355 14.8677ZM10.0026 14.492C10.2778 14.2477 10.453 13.9103 10.4944 13.5447L7.88376 13.2491C7.91531 12.9704 8.04884 12.7132 8.25864 12.527L10.0026 14.492ZM10.4946 13.5426C10.4974 13.5173 10.5095 13.4939 10.5285 13.4768L8.77581 11.5196C8.27566 11.9675 7.95801 12.5839 7.88353 13.2512L10.4946 13.5426ZM10.5285 13.4768C10.5475 13.4598 10.5721 13.4504 10.5976 13.4504L10.5949 10.8231C9.92356 10.8238 9.27596 11.0717 8.77581 11.5196L10.5285 13.4768ZM10.5963 13.4504H13.0767V10.8231H10.5963V13.4504ZM13.0766 13.4504C13.1022 13.4504 13.1268 13.4598 13.1458 13.4768L14.8976 11.5188C14.3969 11.0708 13.7487 10.8232 13.0768 10.8231L13.0766 13.4504ZM13.1458 13.4768C13.1648 13.4938 13.1769 13.5173 13.1798 13.5426L15.7908 13.2512C15.7163 12.5835 15.3983 11.9667 14.8976 11.5188L13.1458 13.4768ZM13.18 13.5447C13.2214 13.9103 13.3965 14.2477 13.6718 14.492L15.4157 12.527C15.6255 12.7132 15.759 12.9704 15.7906 13.2491L13.18 13.5447ZM13.6718 14.492C13.947 14.7362 14.3028 14.8701 14.6708 14.8677L14.6541 12.2405C14.9346 12.2388 15.2059 12.3408 15.4157 12.527L13.6718 14.492ZM14.6625 14.8678H15.7459V12.2405H14.6625V14.8678ZM15.7375 14.8677C16.1055 14.8701 16.4614 14.7362 16.7366 14.492L14.9926 12.527C15.2024 12.3408 15.4737 12.2388 15.7542 12.2405L15.7375 14.8677ZM16.7366 14.492C17.0118 14.2477 17.187 13.9103 17.2284 13.5447L14.6178 13.2491C14.6493 12.9704 14.7828 12.7132 14.9926 12.527L16.7366 14.492ZM17.2286 13.5426C17.2314 13.5173 17.2435 13.4939 17.2625 13.4769L15.5089 11.5205C15.0092 11.9683 14.692 12.5844 14.6175 13.2512L17.2286 13.5426ZM17.2625 13.4769C17.2814 13.4599 17.306 13.4504 17.3315 13.4504L17.3264 10.8231C16.6554 10.8244 16.0085 11.0727 15.5089 11.5205L17.2625 13.4769ZM17.3289 13.4504H19.8094V10.8231H17.3289V13.4504ZM19.8093 13.4504C19.8348 13.4504 19.8595 13.4598 19.8785 13.4768L21.6302 11.5188C21.1296 11.0708 20.4813 10.8232 19.8095 10.8231L19.8093 13.4504ZM19.8785 13.4768C19.8975 13.4938 19.9096 13.5173 19.9124 13.5426L22.5235 13.2512C22.4489 12.5835 22.1309 11.9667 21.6302 11.5188L19.8785 13.4768ZM19.9127 13.5447C19.954 13.9103 20.1292 14.2477 20.4044 14.492L22.1484 12.527C22.3582 12.7132 22.4917 12.9704 22.5233 13.2491L19.9127 13.5447ZM20.4044 14.492C20.6796 14.7362 21.0355 14.8701 21.4035 14.8677L21.3868 12.2405C21.6673 12.2388 21.9386 12.3408 22.1484 12.527L20.4044 14.492ZM21.3951 14.8678H21.5812V12.2405H21.3951V14.8678ZM21.5818 14.8678C21.8597 14.8676 22.1363 14.9072 22.403 14.9854L23.1414 12.464C22.6344 12.3155 22.1088 12.2403 21.5805 12.2405L21.5818 14.8678ZM22.4077 14.9867C22.6299 15.0509 22.8641 15.0625 23.0916 15.0206L22.6154 12.4368C22.7888 12.4049 22.9673 12.4137 23.1368 12.4626L22.4077 14.9867ZM23.0916 15.0206C23.3191 14.9786 23.5337 14.8844 23.7185 14.7451L22.1375 12.6468C22.2784 12.5407 22.442 12.4688 22.6154 12.4368L23.0916 15.0206ZM23.7185 14.7451C23.9033 14.6059 24.0531 14.4256 24.1561 14.2185L21.8039 13.0482C21.8824 12.8904 21.9967 12.7529 22.1375 12.6468L23.7185 14.7451ZM24.1561 14.2185C24.2592 14.0114 24.3126 13.7832 24.3122 13.5518L21.6849 13.5565C21.6846 13.3801 21.7254 13.2061 21.8039 13.0482L24.1561 14.2185ZM24.3122 13.5541V10.365H21.6849V13.5541H24.3122ZM24.3122 10.365C24.3122 9.35873 23.9125 8.39368 23.2009 7.68215L21.3432 9.53991C21.562 9.75873 21.6849 10.0555 21.6849 10.365H24.3122ZM23.2009 7.68215C22.4894 6.97062 21.5244 6.57089 20.5181 6.57089V9.19816C20.8276 9.19816 21.1244 9.32109 21.3432 9.53991L23.2009 7.68215Z" fill="white" mask="url(#path-2-inside-1_637_133)"/>
</svg>
