<svg width="22" height="17" viewBox="0 0 22 17" fill="none" xmlns="http://www.w3.org/2000/svg">
<path d="M4.57002 6.36094C4.53541 6.39166 4.49066 6.4085 4.44438 6.4082L19.0066 6.58867C18.5972 6.46877 18.1727 6.408 17.7461 6.4082H17.5492C17.5029 6.4085 17.4582 6.39166 17.4236 6.36094C17.389 6.33022 17.3669 6.28778 17.3617 6.2418M4.57002 6.36094C4.60464 6.33022 4.62667 6.28778 4.63188 6.2418C4.67278 5.87532 4.84725 5.53676 5.12195 5.29076C5.39665 5.04477 5.75234 4.90858 6.12109 4.9082H8.74609C9.11508 4.90823 9.47112 5.04427 9.74612 5.29029C10.0211 5.53632 10.1958 5.87508 10.2367 6.2418M4.57002 6.36094L4.44585 6.22103L4.57002 6.36094ZM10.2367 6.2418C10.2419 6.28778 10.264 6.33022 10.2986 6.36094M10.2367 6.2418L10.4227 6.22103M10.2367 6.2418L10.4227 6.22103M10.2986 6.36094C10.3332 6.39166 10.3779 6.4085 10.4242 6.4082H11.5708C11.6171 6.4085 11.6618 6.39166 11.6964 6.36094C11.731 6.33022 11.7531 6.28778 11.7583 6.2418M10.2986 6.36094L10.4227 6.22103M10.2986 6.36094L10.4227 6.22103M11.7583 6.2418C11.7992 5.87556 11.9734 5.5372 12.2478 5.29123C12.5222 5.04527 12.8776 4.90892 13.2461 4.9082H15.8711C16.2401 4.90823 16.5961 5.04427 16.8711 5.29029C17.1461 5.53632 17.3208 5.87508 17.3617 6.2418M11.7583 6.2418L11.5723 6.22103L11.572 6.221L11.5708 6.22087L11.2614 6.18633C11.2719 6.09203 11.2891 5.99911 11.3125 5.9082M11.7583 6.2418L11.572 6.22071L11.5708 6.22057L11.2615 6.18555C11.2701 6.10891 11.3068 6.03818 11.3645 5.98698C11.4214 5.93648 11.4948 5.90849 11.5708 5.9082M17.3617 6.2418L17.548 6.22071L17.5492 6.22057L17.746 6.19829V6.1989L17.5492 6.22087L17.548 6.221L17.5477 6.22103L17.3617 6.2418ZM11.3125 5.9082H10.6825C10.5842 5.52775 10.3754 5.18243 10.0795 4.91766C9.71283 4.58962 9.23812 4.40824 8.74613 4.4082H8.74609L6.12109 4.4082L6.12059 4.4082C5.62892 4.4087 5.15467 4.59029 4.7884 4.91828C4.49273 5.18305 4.28416 5.52825 4.18604 5.90852C3.86998 5.91209 3.55525 5.94576 3.24609 6.00893V3.0332C3.24609 2.46962 3.46998 1.92912 3.86849 1.5306C4.26701 1.13209 4.80751 0.908203 5.37109 0.908203H16.6211C17.1847 0.908203 17.7252 1.13209 18.1237 1.5306C18.5222 1.92912 18.7461 2.46962 18.7461 3.0332V6.00926C18.4374 5.94609 18.1232 5.91232 17.8076 5.90856C17.7094 5.52796 17.5005 5.18251 17.2045 4.91766C16.8378 4.58962 16.3631 4.40824 15.8711 4.4082H15.8711L13.2461 4.4082L13.2451 4.4082C12.7538 4.40916 12.28 4.59096 11.9141 4.91891C11.6189 5.18353 11.4106 5.52836 11.3125 5.9082ZM11.3125 5.9082H11.5708M11.5708 5.9082H11.574L11.574 5.90821C11.5729 5.90821 11.5718 5.9082 11.5708 5.9082ZM17.7461 7.6582H17.7465C18.1936 7.65782 18.6358 7.75041 19.0451 7.9301L19.0458 7.93038C19.625 8.1837 20.118 8.60027 20.4643 9.12919C20.8107 9.65811 20.9955 10.2765 20.9961 10.9087V16.1582C20.9961 16.2245 20.9698 16.2881 20.9229 16.335C20.876 16.3819 20.8124 16.4082 20.7461 16.4082C20.6798 16.4082 20.6162 16.3819 20.5693 16.335C20.5224 16.2881 20.4961 16.2245 20.4961 16.1582V15.7832H20.4961L20.4961 15.7771C20.4932 15.5475 20.4008 15.3282 20.2385 15.1658C20.0761 15.0035 19.8568 14.9111 19.6272 14.9082V14.9082H19.6211H2.37109V14.9082L2.36496 14.9082C2.13541 14.9111 1.91605 15.0035 1.75372 15.1658C1.59139 15.3282 1.49895 15.5475 1.49613 15.7771L1.49609 15.7771V15.7832V16.1582C1.49609 16.2245 1.46975 16.2881 1.42287 16.335C1.37599 16.3819 1.3124 16.4082 1.24609 16.4082C1.17979 16.4082 1.1162 16.3819 1.06932 16.335C1.02243 16.2881 0.996094 16.2245 0.996094 16.1582V10.9084C0.996686 10.2762 1.18143 9.65784 1.52776 9.12889C1.87413 8.59989 2.3671 8.18326 2.94643 7.92991L2.94684 7.92973C3.35628 7.75023 3.79855 7.65777 4.24561 7.6582H4.24609H17.7461ZM4.44755 5.9082H4.44438C4.44543 5.9082 4.44649 5.90821 4.44755 5.90821V5.9082ZM18.7461 6.40798V6.4082V6.40909V6.40798Z" stroke="#4F4F4F"/>
</svg>
