<svg width="22" height="22" viewBox="0 0 22 22" fill="none" xmlns="http://www.w3.org/2000/svg">
<path fill-rule="evenodd" clip-rule="evenodd" d="M11.002 21.7502C5.06489 21.7502 0.251953 16.9373 0.251953 11.0002C0.251953 5.06318 5.06489 0.250244 11.002 0.250244C16.9391 0.250244 21.752 5.06318 21.752 11.0002C21.752 16.9373 16.9391 21.7502 11.002 21.7502ZM15.482 8.3778C15.9665 8.11281 16.1445 7.50517 15.8795 7.02062C15.6145 6.53606 15.0069 6.35806 14.5224 6.62306C12.6937 7.6231 11.1816 9.55314 10.1649 11.1098C9.78915 11.6852 9.46815 12.2299 9.21135 12.6913C8.97179 12.4589 8.73453 12.2572 8.52233 12.0894C8.24465 11.8699 7.99477 11.6967 7.81258 11.5774L7.49754 11.3817C7.0178 11.1081 6.40708 11.2752 6.13347 11.755C5.85992 12.2346 6.02688 12.8451 6.50637 13.1189L6.71666 13.2504C6.85947 13.3439 7.05959 13.4825 7.28192 13.6583C7.73948 14.02 8.23321 14.4942 8.54393 15.0137C8.73462 15.3325 9.08635 15.5193 9.45725 15.4989C9.82805 15.4784 10.1571 15.2538 10.3116 14.9161L10.4099 14.7107C10.4776 14.5723 10.579 14.3699 10.711 14.1206C10.9755 13.6209 11.3601 12.9374 11.8394 12.2034C12.8228 10.6977 14.1106 9.12774 15.482 8.3778Z" fill="#4F4F4F"/>
</svg>
