<svg width="26" height="26" viewBox="0 0 26 26" fill="none" xmlns="http://www.w3.org/2000/svg">
<path fill-rule="evenodd" clip-rule="evenodd" d="M13.0007 25.5418C6.07408 25.5418 0.458984 19.9268 0.458984 13.0002C0.458984 6.07359 6.07408 0.458496 13.0007 0.458496C19.9273 0.458496 25.5423 6.07359 25.5423 13.0002C25.5423 19.9268 19.9273 25.5418 13.0007 25.5418ZM18.2273 9.94065C18.7926 9.63149 19.0002 8.92258 18.6911 8.35727C18.3819 7.79195 17.673 7.58429 17.1078 7.89345C14.9743 9.06017 13.2102 11.3119 12.024 13.128C11.5857 13.7993 11.2112 14.4348 10.9116 14.9731C10.6321 14.702 10.3553 14.4667 10.1078 14.2709C9.7838 14.0148 9.49227 13.8127 9.27972 13.6736L8.91217 13.4452C8.35248 13.126 7.63997 13.321 7.32076 13.8808C7.00162 14.4403 7.1964 15.1525 7.75581 15.472L8.00115 15.6254C8.16776 15.7345 8.40123 15.8962 8.66062 16.1013C9.19444 16.5233 9.77045 17.0765 10.133 17.6826C10.3554 18.0545 10.7658 18.2724 11.1985 18.2486C11.6311 18.2247 12.0149 17.9627 12.1952 17.5687L12.3099 17.3291C12.3889 17.1676 12.5072 16.9315 12.6611 16.6406C12.9697 16.0576 13.4184 15.2602 13.9776 14.4039C15.1249 12.6472 16.6273 10.8156 18.2273 9.94065Z" fill="#060614"/>
</svg>
