<svg width="28" height="28" viewBox="0 0 28 28" fill="none" xmlns="http://www.w3.org/2000/svg">
<path fill-rule="evenodd" clip-rule="evenodd" d="M15.1704 3.28173C14.5235 2.76826 13.6085 2.76637 12.9594 3.27715L1.73371 12.111C1.40208 12.372 0.921698 12.3147 0.66073 11.9831C0.399761 11.6515 0.457046 11.1711 0.788667 10.9101L12.0144 2.07624C13.2199 1.12765 14.919 1.13119 16.1204 2.08478L27.2422 10.9121C27.5727 11.1745 27.628 11.655 27.3657 11.9856C27.1033 12.3162 26.6227 12.3714 26.2922 12.1091L15.1704 3.28173Z" fill="#060614"/>
<path fill-rule="evenodd" clip-rule="evenodd" d="M9.01074 15.1128C9.01074 13.2842 10.4931 11.8018 12.3218 11.8018H15.742C17.5706 11.8018 19.053 13.2842 19.053 15.1128V25.3006H17.5249V15.1128C17.5249 14.1282 16.7266 13.3299 15.742 13.3299H12.3218C11.3371 13.3299 10.5389 14.1282 10.5389 15.1128V25.3006H9.01074V15.1128Z" fill="#060614"/>
<path fill-rule="evenodd" clip-rule="evenodd" d="M4.93638 8.85449V22.7536C4.93638 23.7383 5.7346 24.5365 6.71925 24.5365H21.2733C22.258 24.5365 23.0562 23.7383 23.0562 22.7536V8.85449H24.5843V22.7536C24.5843 24.5823 23.1019 26.0647 21.2733 26.0647H6.71925C4.89061 26.0647 3.4082 24.5823 3.4082 22.7536V8.85449H4.93638Z" fill="#060614"/>
</svg>
