<svg width="28" height="28" viewBox="0 0 28 28" fill="none" xmlns="http://www.w3.org/2000/svg">
<path fill-rule="evenodd" clip-rule="evenodd" d="M14.0007 26.5028L14.9822 25.3967C16.0961 24.1211 17.0979 22.9109 17.9892 21.7597L18.725 20.789C21.7974 16.6495 23.3343 13.3641 23.3343 10.9358C23.3343 5.75248 19.1559 1.55078 14.0007 1.55078C8.84536 1.55078 4.66699 5.75248 4.66699 10.9358C4.66699 13.3641 6.20393 16.6495 9.27626 20.789L10.0121 21.7597C11.2837 23.389 12.6141 24.9701 14.0007 26.5028Z" stroke="#060614" stroke-width="1.5" stroke-linecap="round" stroke-linejoin="round"/>
<path d="M14.0004 14.7732C16.1482 14.7732 17.8894 13.032 17.8894 10.8841C17.8894 8.73629 16.1482 6.99512 14.0004 6.99512C11.8525 6.99512 10.1113 8.73629 10.1113 10.8841C10.1113 13.032 11.8525 14.7732 14.0004 14.7732Z" stroke="#060614" stroke-width="1.5" stroke-linecap="round" stroke-linejoin="round"/>
</svg>
