<svg width="14" height="19" viewBox="0 0 14 19" fill="none" xmlns="http://www.w3.org/2000/svg">
<path fill-rule="evenodd" clip-rule="evenodd" d="M6.99614 17.9682L7.68127 17.1962C8.45869 16.3059 9.15793 15.4611 9.78009 14.6576L10.2937 13.9801C12.4381 11.0908 13.5108 8.79768 13.5108 7.10277C13.5108 3.48494 10.5944 0.552246 6.99614 0.552246C3.39786 0.552246 0.481445 3.48494 0.481445 7.10277C0.481445 8.79768 1.5542 11.0908 3.69862 13.9801L4.21219 14.6576C5.09975 15.7949 6.02835 16.8984 6.99614 17.9682Z" stroke="#4F4F4F" stroke-width="0.8" stroke-linecap="round" stroke-linejoin="round"/>
<path d="M6.99571 9.78133C8.49486 9.78133 9.71016 8.56603 9.71016 7.06687C9.71016 5.56772 8.49486 4.35242 6.99571 4.35242C5.49655 4.35242 4.28125 5.56772 4.28125 7.06687C4.28125 8.56603 5.49655 9.78133 6.99571 9.78133Z" stroke="#4F4F4F" stroke-width="0.8" stroke-linecap="round" stroke-linejoin="round"/>
</svg>
