<svg width="40" height="30" viewBox="0 0 40 30" fill="none" xmlns="http://www.w3.org/2000/svg">
<path d="M23.3429 19.5071C22.3477 20.1705 21.1918 20.5213 20 20.5213C18.8083 20.5213 17.6523 20.1705 16.6572 19.5071L0.266328 8.57953C0.175844 8.51903 0.0870347 8.45607 0 8.3907L0 26.2967C0 28.3497 1.66602 29.979 3.68227 29.979H36.3177C38.3706 29.979 39.9999 28.313 39.9999 26.2967V8.39062C39.9127 8.45616 39.8237 8.51926 39.733 8.57984L23.3429 19.5071Z" fill="#544FCC"/>
<path d="M1.56641 6.62828L17.9573 17.5559C18.5777 17.9696 19.2888 18.1764 19.9999 18.1764C20.7111 18.1764 21.4223 17.9695 22.0427 17.5559L38.4336 6.62828C39.4145 5.97477 40 4.88102 40 3.70055C40 1.67078 38.3487 0.0195312 36.319 0.0195312H3.68102C1.65133 0.0196094 1.93758e-06 1.67086 1.93758e-06 3.7025C-0.000606547 4.28157 0.142112 4.85178 0.415428 5.36229C0.688743 5.8728 1.08416 6.30773 1.56641 6.62828Z" fill="#544FCC"/>
</svg>
