<svg width="28" height="28" viewBox="0 0 28 28" fill="none" xmlns="http://www.w3.org/2000/svg">
<path d="M16.4343 2.33301H7.47438C6.88029 2.33301 6.31054 2.57884 5.89045 3.01642C5.47037 3.454 5.23438 4.04749 5.23438 4.66634V23.3331C5.23438 23.9519 5.47037 24.5453 5.89045 24.983C6.31054 25.4205 6.88029 25.6664 7.47438 25.6664H20.9143C21.5085 25.6664 22.0782 25.4205 22.4982 24.983C22.9184 24.5453 23.1543 23.9519 23.1543 23.3331V9.33301L16.4343 2.33301Z" stroke="#060614" stroke-linecap="round" stroke-linejoin="round"/>
<path d="M16.4346 2.33301V9.33301H23.1546" stroke="#060614" stroke-linecap="round" stroke-linejoin="round"/>
<path d="M18.6748 15.1665H9.71484" stroke="#060614" stroke-linecap="round" stroke-linejoin="round"/>
<path d="M18.6748 19.833H9.71484" stroke="#060614" stroke-linecap="round" stroke-linejoin="round"/>
<path d="M11.9548 10.4995H10.8348H9.71484" stroke="#060614" stroke-linecap="round" stroke-linejoin="round"/>
</svg>
