<svg width="38" height="38" viewBox="0 0 38 38" fill="none" xmlns="http://www.w3.org/2000/svg">
<path d="M36.5438 27.25C36.4412 27.1688 29 21.805 26.9575 22.19C25.9825 22.3625 25.425 23.0275 24.3063 24.3588C24.1263 24.5738 23.6938 25.0887 23.3575 25.455C22.6505 25.2244 21.9608 24.9437 21.2937 24.615C17.8507 22.9388 15.0687 20.1568 13.3925 16.7137C13.0636 16.0468 12.7829 15.3571 12.5525 14.65C12.92 14.3125 13.435 13.88 13.655 13.695C14.98 12.5825 15.6462 12.025 15.8188 11.0475C16.1725 9.0225 10.8125 1.53 10.7562 1.4625C10.5131 1.11509 10.1957 0.826078 9.82709 0.616379C9.4585 0.40668 9.0479 0.281535 8.625 0.25C6.4525 0.25 0.25 8.29625 0.25 9.65125C0.25 9.73 0.36375 17.735 10.235 27.7762C20.2662 37.6362 28.27 37.75 28.3488 37.75C29.705 37.75 37.75 31.5475 37.75 29.375C37.7188 28.9536 37.5944 28.5444 37.3858 28.1769C37.1772 27.8094 36.8896 27.4928 36.5438 27.25Z" fill="#544FCC"/>
</svg>
