<svg width="28" height="28" viewBox="0 0 28 28" fill="none" xmlns="http://www.w3.org/2000/svg">
<path d="M22.0549 1.75H15.3322C15.1232 1.74985 14.9227 1.83243 14.7744 1.97969L1.33438 15.4164C1.04017 15.7121 0.875 16.1122 0.875 16.5293C0.875 16.9464 1.04017 17.3465 1.33438 17.6422L7.73282 24.0406C8.02857 24.3349 8.42879 24.5001 8.84598 24.5001C9.26317 24.5001 9.66339 24.3349 9.95914 24.0406L23.3953 10.6094C23.5426 10.4611 23.6252 10.2605 23.625 10.0516V3.325C23.626 3.1183 23.5861 2.91344 23.5076 2.72222C23.4292 2.531 23.3136 2.35719 23.1677 2.2108C23.0218 2.06441 22.8483 1.94833 22.6573 1.86925C22.4664 1.79017 22.2616 1.74964 22.0549 1.75Z" stroke="#060614" stroke-width="1.5" stroke-linecap="round" stroke-linejoin="round"/>
<path d="M19.25 7.875C18.9039 7.875 18.5655 7.77237 18.2778 7.58007C17.99 7.38778 17.7657 7.11447 17.6332 6.7947C17.5008 6.47493 17.4661 6.12306 17.5336 5.78359C17.6012 5.44413 17.7678 5.13231 18.0126 4.88756C18.2573 4.64282 18.5691 4.47615 18.9086 4.40863C19.2481 4.3411 19.5999 4.37576 19.9197 4.50821C20.2395 4.64066 20.5128 4.86497 20.7051 5.15275C20.8974 5.44054 21 5.77888 21 6.125C21 6.58913 20.8156 7.03425 20.4874 7.36244C20.1592 7.69063 19.7141 7.875 19.25 7.875Z" fill="#060614"/>
<path d="M12.5781 26.25L26.9062 11.9219C26.9775 11.85 27.0336 11.7646 27.0711 11.6706C27.1087 11.5767 27.127 11.4762 27.125 11.375V4.375" stroke="#060614" stroke-width="1.5" stroke-linecap="round" stroke-linejoin="round"/>
</svg>
